<svg width="387" height="445" viewBox="0 0 387 445" fill="none" xmlns="http://www.w3.org/2000/svg">
<path d="M182.567 7.02296C134.42 41.7164 65.598 69.5975 8.55016 77.6739L0 78.8678V119.109C0 173.256 1.12133 188.426 7.84933 222.628C15.3482 261.184 32.3084 302.057 53.6838 333.45C65.3176 350.446 70.3636 356.485 86.4127 372.779C111.503 398.202 138.064 416.953 178.222 437.811C188.594 443.219 193.29 445.256 194.341 444.975C196.584 444.413 224.757 429.384 233.377 424.257C290.565 389.844 327.009 352.061 352.169 300.934C371.301 262.027 381.604 223.611 385.528 176.979C385.949 171.782 386.439 147.552 386.65 123.183L387 78.8678L381.814 78.3762C373.965 77.6037 356.163 74.0922 342.217 70.5807C294.49 58.5715 245.011 35.6766 203.101 6.25043C198.266 2.80918 193.85 0 193.29 0C192.799 0 187.963 3.16033 182.567 7.02296ZM207.096 56.8157C229.313 62.715 248.305 81.3961 254.753 103.589C256.855 110.893 258.257 121.216 257.626 124.587L257.136 127.116H251.739C236.811 127.116 223.355 122.199 213.754 113.28C208.778 108.645 204.713 102.816 203.031 97.9001C202.541 96.2848 201.7 95.1611 201.139 95.2313C200.578 95.3016 197.915 96.9168 195.322 98.9535C189.435 103.378 185.511 105.415 178.712 107.521C174.227 108.926 171.914 109.137 163.294 109.207C157.687 109.207 150.329 109.067 146.825 108.856C142.549 108.645 139.396 108.856 137.153 109.488C132.948 110.682 127.482 115.457 125.449 119.741C122.155 126.554 120.824 121.357 123.066 110.401C125.94 96.4955 131.757 85.7503 141.919 75.4266C152.151 65.0326 163.715 58.7822 177.731 55.8325C184.74 54.3577 199.808 54.8493 207.096 56.8157ZM198.126 111.876C199.387 114.544 206.045 121.427 210.53 124.587C219.15 130.767 230.644 135.122 241.717 136.526L248.445 137.369L248.796 144.322C249.146 150.923 249.216 151.345 250.688 151.555C254.613 152.117 257.276 148.536 257.836 142.004C258.187 137.861 258.467 137.229 260.149 136.245C261.901 135.332 262.252 135.332 264.004 136.386C266.597 137.931 268.419 141.583 268.419 145.235C268.419 153.03 261.691 160.194 253.211 161.317C251.319 161.528 249.426 161.949 248.936 162.23C248.445 162.441 246.974 165.04 245.712 167.919C242.628 175.082 239.405 179.647 237.022 180.209C231.415 181.403 224.407 183.51 220.692 184.985C211.511 188.777 200.859 197.907 196.864 205.422C194.972 209.003 194.621 209.144 185.23 207.809C170.373 205.843 155.235 197.205 144.792 184.985C140.447 179.928 134.98 170.377 133.228 164.969C132.457 162.581 132.177 162.371 129.093 162.02C121.805 161.177 114.867 156.472 112.554 150.853C109.33 143.268 113.255 134.841 119.983 134.841H122.646L122.225 140.249C121.665 147.061 122.786 150.151 126.641 152.609C132.177 156.191 132.177 156.261 131.897 147.271C131.476 134.068 134.28 122.41 138.555 119.601C140.097 118.548 141.568 118.548 151.941 119.25C169.672 120.444 180.815 118.688 190.977 113.14C196.864 109.909 197.214 109.839 198.126 111.876ZM249.707 192.078C260.85 194.396 272.694 203.806 277.74 214.2C280.964 220.732 282.436 226.561 282.436 232.249C282.436 236.393 282.576 236.674 284.188 237.095C285.169 237.306 286.571 238.359 287.342 239.272C289.935 242.573 288.813 245.663 284.398 247.489C282.436 248.332 281.805 249.104 281.104 251.562C278.371 260.692 270.732 270.314 262.041 275.511C243.96 286.256 220.132 281.41 206.886 264.414C203.522 260.13 201.98 257.181 200.368 252.124C199.527 249.315 198.826 248.191 197.775 248.051C195.603 247.7 193.22 244.68 193.22 242.152C193.22 239.834 196.023 236.674 198.055 236.674C198.756 236.674 199.037 235.761 199.037 233.303C199.107 224.384 203.802 212.234 209.899 205.281C215.506 198.89 225.037 193.483 233.728 191.727C238.213 190.814 244.591 190.954 249.707 192.078ZM152.852 206.896C161.542 212.796 174.858 217.571 185.931 218.765C189.926 219.187 190.627 219.397 190.346 220.38C190.206 221.083 189.786 223.26 189.575 225.367C189.225 228.106 188.384 230.002 186.772 232.179C183.618 236.252 182.637 239.553 183.128 244.469C183.548 249.104 185.931 253.81 189.085 256.478C190.206 257.391 192.098 260.271 193.36 263.01C194.621 265.679 196.864 269.541 198.406 271.578L201.139 275.3L199.107 279.373C197.985 281.621 196.373 285.624 195.603 288.363L194.061 293.279L189.295 293.981C179.904 295.456 171.984 300.864 167.85 308.448C166.168 311.538 165.747 313.224 165.537 318.14C165.256 325.233 166.728 330.29 170.723 335.838L173.246 339.42L170.513 338.928C164.976 337.875 153.973 333.661 148.366 330.36C140.097 325.444 131.546 316.665 127.692 309.221C122.716 299.599 121.735 294.613 121.665 279.584L121.595 266.662L119.702 265.257C117.39 263.572 114.726 264.063 113.114 266.521C110.521 270.454 110.732 292.366 113.465 302.268C123.206 337.804 161.822 357.117 211.652 351.499C223.496 350.165 229.663 348.901 242.488 345.389C255.243 341.948 260.149 341.737 265.405 344.336C274.446 348.971 276.549 359.435 270.171 368.143C267.158 372.217 262.392 375.096 254.052 377.765C228.612 385.982 192.799 387.808 165.397 382.33C141.148 377.554 123.767 368.495 107.858 352.623C96.8551 341.526 90.3374 331.273 85.8521 317.789C80.3155 301.425 80.6659 280.005 86.623 263.221C93.5612 243.767 106.877 227.193 125.099 215.464C132.738 210.548 145.072 204.579 147.946 204.438C148.647 204.368 150.819 205.492 152.852 206.896ZM294.49 215.394C303.25 223.892 308.296 232.179 311.52 243.346C314.814 254.793 315.095 270.524 312.221 281.831C307.175 301.496 293.088 317.648 271.503 328.534L264.424 332.116L257.836 331.975C252.09 331.835 250.057 332.186 242.138 334.433C220.552 340.613 201.63 341.526 189.645 337.032C184.95 335.276 178.993 330.079 177.241 326.216C173.666 318.351 177.101 309.712 185.37 305.78C189.505 303.813 192.449 303.743 204.293 305.148C220.202 307.044 236.391 306.131 246.833 302.69C267.368 295.877 279.422 284.008 288.323 262.027C289.584 258.936 291.056 256.759 293.018 255.074C296.663 251.914 298.485 247.91 298.555 243.135C298.555 238.991 297.504 235.901 294.42 231.547C292.878 229.3 292.317 227.544 292.037 224.032C291.827 221.434 290.846 217.29 289.935 214.692C288.953 212.093 288.393 209.986 288.533 209.986C288.743 209.986 291.406 212.445 294.49 215.394ZM215.296 285.062C221.253 288.292 230.294 291.102 237.092 291.804C239.755 292.085 241.647 292.576 241.297 292.928C239.405 294.824 218.87 296.018 210.39 294.824C205.344 294.051 205.204 293.981 205.554 292.225C205.975 290.189 209.339 282.323 209.829 282.323C210.04 282.323 212.423 283.587 215.296 285.062ZM308.367 322.284C308.367 326.497 308.507 330.36 308.717 330.922C308.927 331.413 306.965 334.574 304.372 337.804C299.536 343.914 286.15 358.171 285.239 358.171C284.959 358.171 284.538 356.415 284.258 354.238C283.767 349.814 281.174 343.844 278.371 340.473C277.25 339.209 276.829 338.155 277.25 338.015C281.665 336.54 295.752 326.216 302.059 319.896C304.932 317.016 307.526 314.629 307.806 314.629C308.156 314.629 308.367 318.07 308.367 322.284ZM242.839 393.005C237.022 397.78 205.694 417.445 197.355 421.518C195.462 422.431 193.64 422.782 192.659 422.571C190.907 422.15 171.984 411.475 165.046 407.051L161.192 404.522V398.553C161.192 391.67 160.561 392.092 168.901 393.637C179.413 395.603 199.948 396.446 213.544 395.463C223.145 394.761 237.162 392.935 244.591 391.319C244.801 391.249 244.03 392.022 242.839 393.005Z" fill="#0075F6"/>
<path d="M149.418 140.881C146.824 142.707 147.315 145.797 150.889 149.238C156.286 154.435 163.504 155.067 170.583 151.134C172.755 149.87 174.648 148.114 175.489 146.639C176.82 144.252 176.82 144.041 175.699 142.285C174.087 139.827 171.143 139.897 167.429 142.355C163.574 144.954 160.631 144.813 156.706 142.004C153.202 139.476 151.73 139.265 149.418 140.881Z" fill="#0075F6"/>
<path d="M206.045 140.67C203.522 141.934 202.681 144.813 204.223 147.131C205.905 149.659 211.161 152.89 214.595 153.452C220.412 154.435 227.28 151.907 230.294 147.623C231.836 145.375 231.765 141.864 230.224 140.74C228.261 139.265 226.509 139.546 223.706 141.794C219.641 145.024 218.169 145.094 212.843 142.285C210.25 140.881 208.077 139.757 207.937 139.757C207.867 139.757 207.026 140.178 206.045 140.67Z" fill="#0075F6"/>
<path d="M221.323 236.323C214.034 240.396 219.991 251.703 227.28 247.77C229.663 246.576 230.504 245.031 230.574 242.152C230.574 237.165 225.528 234.005 221.323 236.323Z" fill="#0075F6"/>
<path d="M254.262 236.393C250.267 238.5 249.707 243.275 252.931 246.576C256.365 249.947 261.341 249.175 263.163 244.891C264.424 241.871 263.794 239.132 261.271 237.025C258.958 235.058 256.995 234.848 254.262 236.393Z" fill="#0075F6"/>
<path d="M230.083 258.445C227.911 259.358 227.35 262.237 228.822 264.485C229.453 265.468 231.765 267.083 233.868 268.066C237.162 269.611 238.423 269.822 242.278 269.471C248.235 269.05 252.51 266.24 252.861 262.729C253.281 258.375 250.338 257.251 245.292 259.849C241.717 261.675 239.685 261.605 235.48 259.498C233.588 258.515 231.906 257.743 231.836 257.813C231.695 257.813 230.924 258.094 230.083 258.445Z" fill="#0075F6"/>
</svg>
